<?xml version="1.0" standalone="no"?>
<!DOCTYPE svg PUBLIC "-//W3C//DTD SVG 20010904//EN"
 "http://www.w3.org/TR/2001/REC-SVG-20010904/DTD/svg10.dtd">
<svg version="1.0" xmlns="http://www.w3.org/2000/svg"
 width="679.000000pt" height="350.000000pt" viewBox="0 0 679.000000 350.000000"
 preserveAspectRatio="xMidYMid meet">

<g transform="translate(0.000000,350.000000) scale(0.100000,-0.100000)"
fill="#000000" stroke="none">
<path d="M0 1750 l0 -1750 1815 0 c1405 0 1815 3 1815 12 0 9 3 9 12 0 15 -15
869 -17 884 -2 14 14 83 15 117 1 20 -8 332 -11 1088 -11 l1059 0 0 1750 0
1750 -235 0 -235 0 0 -24 c0 -42 -55 -42 -71 0 l-9 24 -627 0 -628 0 -13 -40
c-6 -22 -12 -53 -12 -69 0 -37 17 -42 187 -50 143 -7 168 -16 157 -58 -5 -16
-18 -26 -48 -34 -22 -6 -45 -15 -51 -19 -5 -4 -21 -10 -34 -12 -13 -1 -31 -14
-39 -27 -16 -23 -16 -23 14 -17 43 10 74 -17 81 -71 6 -47 -2 -93 -17 -93 -6
0 -28 -11 -50 -25 l-41 -26 -44 31 c-57 39 -71 66 -85 170 -16 112 -26 133
-61 125 -41 -9 -62 18 -55 69 3 23 9 65 12 94 l6 52 -85 0 -85 0 -7 -82 c-3
-46 -2 -114 4 -153 6 -38 11 -94 11 -122 0 -29 7 -70 16 -92 13 -34 14 -44 2
-68 -19 -40 -42 -40 -83 1 -40 40 -51 44 -60 19 -3 -10 -20 -27 -37 -38 -37
-23 -50 -62 -37 -107 7 -25 4 -41 -12 -75 -20 -41 -70 -88 -82 -77 -3 3 -11
-4 -17 -17 -11 -19 -10 -24 4 -35 15 -10 10 -14 -36 -29 -66 -22 -74 -28 -82
-65 -7 -38 -35 -40 -70 -6 -22 23 -24 32 -22 113 1 48 5 93 9 100 4 6 2 55 -3
109 -6 53 -7 126 -4 162 7 64 7 64 35 58 36 -7 37 6 4 28 -30 20 -41 56 -25
85 13 24 47 28 52 5 3 -13 5 -13 23 0 19 14 19 15 -15 30 -19 8 -31 15 -26 16
5 0 -1 11 -13 24 -19 20 -21 28 -12 45 7 12 16 22 21 22 6 1 14 2 19 3 22 3
19 14 -9 41 -17 16 -30 36 -30 45 0 22 32 50 57 50 31 0 45 -25 47 -84 2 -67
18 -89 58 -80 23 5 33 1 44 -15 21 -30 29 -27 56 22 l24 43 -28 -4 c-35 -5
-58 13 -58 44 0 25 41 51 61 38 13 -7 39 14 39 32 0 12 -48 14 -276 14 -156 0
-273 -4 -270 -9 3 -5 2 -58 -3 -117 -7 -85 -6 -115 5 -136 9 -17 13 -64 13
-145 0 -65 1 -156 1 -203 1 -47 1 -109 0 -138 -1 -30 1 -56 4 -60 4 -3 24 -5
45 -4 49 3 75 -20 66 -57 -11 -43 -53 -55 -91 -26 -29 22 -39 18 -49 -17 -13
-43 -50 -61 -96 -48 -24 7 -40 7 -56 -1 -16 -9 -29 -9 -46 -2 -25 12 -129 161
-121 174 12 20 63 8 93 -22 17 -17 31 -35 31 -40 0 -5 13 -23 29 -40 l30 -31
-3 104 c-2 57 -7 115 -11 131 -4 16 -2 40 5 56 9 23 9 34 -1 53 -19 36 -21
305 -2 341 11 22 12 35 3 62 -7 21 -8 46 -2 66 5 20 4 48 -2 71 l-10 38 -142
0 c-133 0 -142 -1 -147 -20 -4 -15 -14 -20 -36 -20 -19 0 -31 -5 -31 -13 0
-18 21 -37 40 -37 47 0 49 -40 38 -530 -1 -19 2 -98 6 -174 10 -195 14 -187
-87 -186 -45 0 -123 -3 -174 -6 -50 -4 -103 -4 -117 0 -25 6 -26 9 -20 55 4
31 2 51 -5 55 -18 11 -13 48 10 72 l21 22 -26 45 c-31 51 -32 64 -9 89 14 16
15 24 5 52 -17 47 -15 65 10 86 22 17 22 18 4 58 -13 28 -16 50 -11 69 14 52
9 92 -13 116 -19 20 -20 26 -8 48 14 27 14 26 -4 86 -12 38 -11 45 3 61 10 10
17 31 17 45 l0 27 -225 0 c-124 0 -225 -3 -225 -7 0 -5 9 -21 20 -38 22 -33
26 -81 9 -119 -9 -19 -8 -34 3 -68 8 -23 11 -56 8 -73 -3 -16 -2 -46 3 -65 5
-19 6 -58 3 -87 -4 -31 -2 -54 4 -58 10 -6 12 -167 3 -192 -3 -7 -18 -13 -34
-13 -42 0 -45 -22 -14 -81 24 -47 26 -55 17 -113 -6 -33 -12 -65 -13 -71 -2
-5 2 -25 10 -42 7 -18 11 -39 8 -46 -6 -16 -144 -41 -171 -31 -20 8 -19 22 10
126 l18 67 -22 24 c-19 20 -21 28 -12 51 15 41 12 91 -7 125 -17 29 -17 30 5
54 28 30 28 43 -2 100 -22 40 -23 47 -10 58 17 14 13 54 -8 116 -9 24 -9 38 0
58 9 20 8 35 -4 71 -15 44 -15 48 3 73 15 22 17 34 10 76 -4 28 -9 62 -10 78
l-2 27 -292 0 -293 0 0 -30 c0 -16 -5 -40 -11 -54 -10 -21 -8 -29 11 -53 20
-25 21 -35 15 -95 -3 -37 -2 -75 3 -85 12 -24 -5 -302 -20 -320 -8 -10 -6 -19
11 -36 28 -31 31 -150 4 -166 -14 -7 -15 -12 -4 -24 7 -9 11 -28 9 -43 -2 -20
-11 -29 -38 -38 -21 -7 -36 -19 -38 -30 -5 -22 -32 -54 -32 -37 0 6 -7 11 -15
11 -9 0 -15 9 -15 25 0 14 -5 25 -12 25 -6 0 -8 -3 -5 -6 8 -8 -24 -64 -35
-64 -4 0 -8 -10 -8 -21 0 -18 -2 -19 -15 -9 -12 10 -18 10 -31 0 -10 -9 -42
-13 -94 -11 -44 1 -100 -4 -124 -10 -25 -6 -57 -8 -70 -5 -22 5 -24 10 -19 40
3 18 0 43 -6 55 -10 18 -20 21 -57 20 -48 -3 -76 13 -57 32 6 6 23 11 37 9 14
-1 41 -1 59 -1 17 1 53 1 79 1 40 0 49 3 67 28 11 16 24 48 30 71 8 38 7 43
-17 62 -18 13 -37 19 -61 17 l-36 -3 -5 -60 c-5 -59 -6 -60 -37 -63 -47 -5
-70 12 -98 72 -31 65 -31 76 -2 77 12 0 83 5 157 10 138 10 158 11 245 10 57
-1 86 18 63 40 -8 7 -14 22 -13 33 2 13 1 15 -2 4 -5 -20 -41 -34 -53 -21 -5
4 -10 28 -12 53 -4 53 -23 62 -67 31 -16 -12 -40 -21 -53 -21 -62 -1 -95 -6
-112 -16 -23 -14 -96 -6 -114 13 -7 7 -19 13 -27 13 -16 0 -26 25 -18 46 5 13
15 15 57 8 67 -10 114 -8 131 6 8 7 67 13 144 15 l130 5 24 -31 c22 -28 23
-36 15 -75 -14 -62 -1 -75 65 -67 29 3 53 7 55 9 2 1 -9 16 -25 34 -46 51 -63
89 -52 117 7 18 5 28 -7 40 -12 12 -14 27 -10 54 4 26 2 38 -8 42 -18 7 -56
-20 -56 -39 0 -8 -9 -14 -20 -14 -21 0 -28 16 -10 22 17 5 -28 48 -50 48 -14
0 -20 -7 -20 -22 0 -47 -12 -68 -36 -68 -12 0 -26 -5 -29 -10 -4 -6 -11 -8
-16 -4 -5 3 -7 9 -4 14 3 4 -2 13 -10 20 -8 7 -12 17 -9 22 4 5 -4 9 -17 7
-13 -1 -36 1 -51 5 -14 4 -34 6 -44 4 -15 -3 -13 -8 11 -37 28 -32 28 -34 10
-47 -21 -16 -35 -10 -35 14 0 10 -14 26 -30 36 -48 28 -72 57 -59 72 8 10 2
17 -26 29 -21 8 -39 15 -42 15 -2 0 -23 9 -46 19 -40 19 -103 72 -139 119 -24
30 -23 35 6 28 14 -3 28 -1 31 4 10 16 25 1 25 -23 0 -15 18 -36 54 -65 62
-48 87 -54 79 -19 -5 19 -1 17 25 -12 30 -32 34 -33 79 -27 26 4 63 9 82 11
31 3 70 25 44 25 -6 0 -14 10 -18 23 -4 14 -8 17 -12 9 -7 -17 -43 24 -43 49
0 24 -29 32 -108 27 -57 -3 -67 0 -70 15 -3 15 5 17 55 17 33 0 64 -5 69 -10
8 -8 19 -8 35 -1 44 18 187 33 208 22 28 -15 52 -14 72 5 14 13 20 13 38 2 12
-7 21 -19 21 -26 0 -7 7 -15 16 -19 36 -14 60 71 30 109 -10 13 -29 17 -89 17
-42 0 -77 -4 -77 -10 0 -5 -9 -9 -20 -9 -11 0 -20 5 -20 10 0 6 -112 10 -317
10 -247 0 -314 -3 -305 -12 14 -14 16 -28 3 -28 -5 0 -13 9 -16 20 -6 19 -15
20 -143 20 l-136 0 46 -47 c47 -49 74 -91 64 -100 -2 -3 -15 4 -27 16 -13 12
-26 21 -31 21 -12 0 -10 -18 2 -25 6 -4 8 -15 5 -26 -5 -14 3 -24 32 -41 29
-17 33 -24 20 -26 -11 -2 -31 9 -48 27 -16 17 -36 31 -44 31 -16 0 -90 109
-80 118 3 3 11 0 17 -6 18 -18 33 -15 18 3 -7 9 -10 18 -7 22 4 3 2 12 -4 20
-9 10 -76 13 -330 13 l-319 0 0 -1750z m1109 1675 c61 -10 59 -23 -4 -21 -59
2 -92 22 -82 50 6 15 9 14 26 -3 10 -10 37 -22 60 -26z m-88 -44 c20 -36 26
-58 19 -65 -18 -18 -65 38 -85 102 -6 20 -4 23 15 20 15 -2 32 -20 51 -57z
m286 -57 c11 -29 -3 -37 -25 -14 -12 13 -22 27 -22 31 0 12 41 -3 47 -17z
m-362 -4 c10 -11 16 -22 13 -25 -3 -3 -11 1 -18 10 -7 8 -19 15 -26 15 -8 0
-14 5 -14 10 0 17 26 11 45 -10z m4880 -69 c18 -16 39 -31 47 -34 10 -3 10 -8
2 -17 -9 -9 -22 -1 -57 34 -49 51 -44 63 8 17z m-5050 0 l38 -18 -34 -5 c-18
-3 -45 -2 -59 3 -14 4 -19 8 -12 8 6 1 12 8 12 16 0 19 8 19 55 -4z m66 -8
c13 -15 12 -15 -8 -4 -24 12 -29 21 -14 21 5 0 15 -7 22 -17z m263 -30 c11 -3
16 -1 12 5 -4 7 3 8 22 3 41 -12 92 -40 92 -51 0 -26 -77 -22 -132 6 -15 8
-31 15 -35 15 -13 1 -33 21 -33 31 0 9 23 7 74 -9z m4840 1 c3 -9 6 -78 6
-155 0 -114 -3 -139 -14 -139 -8 0 -18 5 -21 10 -10 16 -52 12 -59 -6 -3 -9
-6 -26 -6 -39 0 -34 -20 -42 -40 -17 -13 15 -16 33 -13 69 4 39 1 52 -16 70
-12 12 -21 29 -21 37 0 22 30 36 54 24 14 -6 34 -5 61 4 36 12 40 16 43 51 2
23 -3 48 -12 62 -15 22 -14 25 2 34 24 14 29 13 36 -5z m-5037 -47 c14 -14 15
-17 3 -17 -26 0 -90 21 -90 29 0 15 70 5 87 -12z m391 -64 c18 -14 31 -27 28
-30 -4 -4 -58 31 -91 60 -21 18 32 -7 63 -30z m-517 -69 c43 -22 59 -6 23 24
-16 13 -22 21 -14 17 29 -15 50 -38 50 -55 0 -10 7 -31 15 -46 15 -28 20 -64
10 -64 -12 0 -85 51 -85 59 0 5 6 11 13 14 7 3 -2 17 -25 36 -26 23 -35 37
-30 49 6 16 7 16 10 -1 2 -9 17 -24 33 -33z m607 12 c3 -15 1 -16 -17 -6 -12
6 -19 16 -15 21 9 15 28 5 32 -15z m4795 -73 c-7 -2 -19 -2 -25 0 -7 3 -2 5
12 5 14 0 19 -2 13 -5z m-993 -61 c0 -5 9 -13 19 -18 18 -9 19 -11 3 -44 -14
-28 -23 -35 -47 -35 -21 0 -33 7 -41 23 -7 15 -14 20 -18 13 -10 -15 -68 -14
-90 2 -20 15 -13 43 13 52 10 3 33 -1 53 -9 31 -14 37 -13 64 4 33 21 44 24
44 12z m-4419 -22 c6 0 8 -4 5 -9 -8 -12 -46 -2 -46 11 0 6 7 7 16 4 9 -3 20
-6 25 -6z m746 -22 c-3 -7 -5 -2 -5 12 0 14 2 19 5 13 2 -7 2 -19 0 -25z
m5104 2 c7 -29 -6 -50 -32 -50 -25 0 -39 29 -28 58 12 32 51 26 60 -8z m-5801
10 c0 -5 -4 -10 -10 -10 -5 0 -10 5 -10 10 0 6 5 10 10 10 6 0 10 -4 10 -10z
m150 -10 c0 -5 9 -10 20 -10 11 0 29 -9 41 -21 20 -20 20 -21 2 -41 -10 -11
-17 -29 -15 -39 4 -25 -9 -24 -66 6 -61 32 -87 55 -95 84 -6 23 -5 24 49 17
37 -4 53 -3 49 4 -3 5 -1 10 4 10 6 0 11 -4 11 -10z m125 -178 c22 -15 53 -37
69 -50 29 -23 47 -23 29 0 -5 7 -13 22 -17 33 -3 11 15 -2 44 -32 27 -28 50
-58 50 -66 0 -24 -32 -30 -50 -9 -8 11 -24 22 -35 26 -16 6 -18 5 -7 -5 23
-24 14 -39 -23 -39 -37 0 -42 -9 -24 -41 10 -20 10 -20 -23 -3 -18 10 -37 18
-43 19 -39 3 -85 52 -85 91 0 8 -9 14 -20 14 -11 0 -20 -5 -20 -11 0 -5 -4 -7
-10 -4 -8 5 -15 45 -7 45 1 0 17 -4 35 -9 30 -9 32 -8 32 14 0 13 4 26 10 30
5 3 7 12 3 21 -8 22 41 9 92 -24z m3543 3 c-2 -19 -1 -35 3 -35 4 0 5 -9 2
-20 -6 -21 -37 -27 -48 -10 -3 6 -3 16 2 23 4 6 6 22 4 34 -3 28 6 43 26 43
12 0 14 -8 11 -35z m-1870 14 c-2 -6 -8 -10 -13 -10 -5 0 -11 4 -13 10 -2 6 4
11 13 11 9 0 15 -5 13 -11z m-2033 -9 c3 -6 -1 -7 -9 -4 -18 7 -21 14 -7 14 6
0 13 -4 16 -10z m-75 -118 c0 -4 22 -21 49 -37 43 -26 49 -33 44 -55 -3 -14
-8 -27 -10 -30 -3 -3 -27 19 -54 48 -46 50 -61 82 -39 82 6 0 10 -4 10 -8z
m-91 -128 c3 -16 1 -17 -13 -5 -19 16 -21 34 -3 29 6 -3 14 -13 16 -24z m1652
-14 c22 0 26 -29 7 -49 -11 -10 -8 -11 15 -6 31 8 35 -2 10 -20 -15 -11 -15
-15 -4 -29 9 -11 15 -49 16 -109 2 -50 6 -116 10 -146 l7 -53 -43 7 c-24 4
-48 11 -52 15 -14 12 12 50 33 50 24 0 32 39 28 130 -3 63 -4 65 -31 68 -22 3
-27 7 -22 20 17 42 16 51 -9 67 -17 12 -46 17 -81 17 -30 0 -55 4 -55 9 0 18
65 38 109 34 24 -3 52 -5 62 -5z m2587 -14 c11 -11 11 -18 2 -36 -6 -12 -9
-29 -6 -37 4 -9 4 -24 0 -35 -5 -16 -8 -17 -20 -7 -13 11 -14 9 -9 -13 4 -17
-1 -41 -14 -68 l-20 -42 27 6 c35 8 307 8 530 0 151 -6 173 -9 170 -23 -2 -12
-38 -22 -163 -43 -150 -25 -170 -26 -325 -18 -91 4 -190 8 -220 9 -30 0 -95 3
-143 7 -81 6 -90 9 -112 36 -42 50 -40 52 72 49 l72 -2 -2 56 c-2 65 7 75 69
75 30 0 44 5 48 17 11 28 -20 48 -69 46 -50 -2 -56 8 -22 32 26 19 113 13 135
-9z m-3756 -3 c10 -9 18 -21 18 -26 0 -6 -9 0 -20 13 -11 13 -20 18 -20 11 0
-7 -5 -9 -10 -6 -10 6 -5 25 7 25 4 0 15 -7 25 -17z m2913 -4 c6 0 -3 -5 -20
-10 -16 -5 -62 -6 -100 -3 -53 4 -78 1 -100 -10 -42 -22 -57 -20 -53 7 3 21 8
22 91 23 48 1 90 4 93 7 3 2 22 1 42 -4 20 -5 42 -9 47 -10z m-1476 -3 c10
-11 7 -19 -11 -35 -25 -24 -41 -23 -46 3 -8 42 31 63 57 32z m-1279 -33 c0 -8
4 -12 9 -8 14 8 61 -47 61 -72 0 -12 5 -25 10 -28 21 -13 9 -25 -17 -19 -29 7
-133 74 -133 86 0 4 15 8 33 10 l32 3 -22 20 c-30 25 -29 33 2 27 14 -2 25
-11 25 -19z m4228 -6 c2 -17 -7 -45 -23 -72 l-26 -45 -118 0 c-149 0 -331 11
-331 20 0 4 12 13 28 20 15 8 39 27 53 44 29 32 57 31 66 -4 5 -17 14 -19 92
-18 47 0 100 -2 117 -6 30 -7 31 -6 38 34 7 44 29 61 76 57 19 -2 26 -8 28
-30z m-4816 -11 c3 2 11 -2 18 -11 7 -8 18 -15 24 -15 6 0 26 -13 45 -29 30
-25 32 -30 21 -50 -10 -19 -17 -22 -43 -17 -38 8 -69 36 -102 92 -32 54 -31
58 4 40 16 -9 31 -13 33 -10z m66 -2 c18 -8 32 -20 32 -25 0 -15 -13 -10 -45
16 -35 29 -31 31 13 9z m62 -49 c0 -8 -4 -15 -10 -15 -5 0 -7 7 -4 15 4 8 8
15 10 15 2 0 4 -7 4 -15z m5421 -15 c33 0 39 -3 39 -20 0 -19 -4 -20 -52 -15
-77 9 -83 12 -68 31 7 8 20 12 27 9 8 -3 32 -5 54 -5z m-5683 -35 c-3 -3 -9 2
-12 12 -6 14 -5 15 5 6 7 -7 10 -15 7 -18z m2372 0 c16 -31 34 -33 25 -3 -6
17 -4 20 10 15 9 -4 28 -7 41 -7 15 0 24 -6 24 -15 0 -11 12 -15 49 -15 37 0
50 -4 56 -17 3 -10 3 -19 -2 -20 -4 -2 -15 -8 -23 -13 -13 -9 -13 -12 2 -24
17 -12 16 -14 -4 -23 l-22 -10 21 -18 c19 -16 20 -20 7 -33 -12 -11 -14 -41
-12 -145 l3 -132 95 -2 c52 -1 203 -7 335 -13 132 -5 344 -15 470 -20 127 -5
277 -12 335 -15 58 -2 140 -5 183 -5 42 0 77 -3 77 -8 0 -4 -64 -20 -142 -35
-79 -15 -287 -58 -463 -96 l-320 -68 -140 8 c-77 4 -322 16 -545 26 -288 13
-371 19 -287 21 85 2 117 6 116 15 -4 35 4 54 32 69 25 15 38 16 75 8 77 -18
80 -12 72 137 -9 162 -5 185 30 181 22 -2 28 -9 33 -38 6 -32 6 -31 8 14 1 40
-2 47 -15 42 -9 -3 -41 -6 -71 -6 -44 0 -53 -3 -45 -13 21 -25 24 -91 8 -147
-9 -29 -16 -73 -16 -96 0 -39 -2 -42 -30 -46 -53 -8 -63 9 -77 129 -14 128
-10 137 73 142 7 1 14 8 18 16 4 12 -3 15 -39 13 -25 0 -48 2 -52 5 -3 4 26 7
65 7 70 0 99 13 71 31 -11 7 -9 9 6 10 11 1 27 2 35 3 8 2 26 3 40 4 20 2 22
4 10 12 -10 6 -11 10 -2 10 6 0 12 7 12 15 0 8 -7 15 -16 15 -9 0 -18 9 -21
20 -3 11 -12 20 -19 20 -8 0 -17 7 -20 15 -4 10 -11 12 -18 7 -6 -5 -20 -12
-30 -16 -16 -6 -17 -4 -6 9 11 13 11 16 -1 13 -8 -2 -13 2 -12 9 2 7 -4 10
-13 6 -12 -5 -13 -7 -3 -14 8 -4 10 -11 6 -15 -4 -4 1 -13 11 -21 15 -13 13
-14 -20 -9 -21 2 -40 0 -44 -5 -3 -5 -10 -7 -15 -4 -5 4 -9 1 -9 -4 0 -14 6
-14 31 0 19 10 20 9 9 -11 -7 -12 -10 -33 -7 -46 4 -21 -10 -32 -27 -21 -2 1
-12 -5 -22 -14 -13 -11 -54 -20 -126 -27 -101 -10 -111 -9 -158 11 -27 11 -50
24 -50 27 0 10 162 59 205 61 22 2 51 11 64 21 13 10 32 18 42 18 11 0 19 5
19 10 0 6 10 10 22 10 20 0 19 2 -8 25 -28 25 -28 26 -10 40 26 20 35 19 64
-7 14 -13 22 -17 18 -10 -4 7 -9 24 -12 37 -6 34 28 34 46 0z m-708 -34 c0
-14 0 -33 -1 -41 -1 -8 -2 -25 -3 -38 0 -15 -10 -28 -25 -35 -35 -16 -55 10
-61 76 -4 53 -3 55 24 64 42 14 64 5 66 -26z m-1587 19 c3 -5 1 -10 -4 -10 -6
0 -11 5 -11 10 0 6 2 10 4 10 3 0 8 -4 11 -10z m619 -6 c9 -24 7 -28 -9 -14
-17 14 -20 30 -6 30 5 0 12 -7 15 -16z m2304 -21 c37 -20 69 -40 72 -44 3 -4
16 -9 30 -12 14 -3 -6 -4 -45 -2 -38 3 -90 5 -115 6 -45 2 -45 2 -10 8 l35 7
-37 17 c-26 11 -38 22 -38 36 0 31 32 26 108 -16z m-2565 -16 c24 -10 37 -27
21 -27 -15 0 -104 44 -104 51 0 8 25 1 83 -24z m908 -51 c88 7 139 0 120 -19
-6 -6 -11 -26 -11 -43 0 -38 -14 -45 -83 -40 -41 3 -56 10 -90 43 -51 48 -140
113 -156 113 -6 0 -11 5 -11 11 0 6 35 -8 77 -31 76 -41 77 -41 154 -34z
m-611 7 c0 -7 -4 -13 -10 -13 -5 0 -10 12 -10 28 0 21 2 24 10 12 5 -8 10 -21
10 -27z m3130 6 c0 -5 -4 -9 -10 -9 -5 0 -10 7 -10 16 0 8 5 12 10 9 6 -3 10
-10 10 -16z m-3430 -9 c0 -5 -4 -10 -10 -10 -5 0 -10 5 -10 10 0 6 5 10 10 10
6 0 10 -4 10 -10z m1990 -6 c0 -2 -9 -4 -21 -4 -11 0 -18 4 -14 10 5 8 35 3
35 -6z m413 9 c-7 -2 -19 -2 -25 0 -7 3 -2 5 12 5 14 0 19 -2 13 -5z m-383
-13 c0 -5 -4 -10 -10 -10 -5 0 -10 5 -10 10 0 6 5 10 10 10 6 0 10 -4 10 -10z
m868 3 c-21 -2 -55 -2 -75 0 -21 2 -4 4 37 4 41 0 58 -2 38 -4z m140 -10 c-10
-2 -26 -2 -35 0 -10 3 -2 5 17 5 19 0 27 -2 18 -5z m368 -37 c40 -40 44 -78
13 -130 -12 -20 -22 -36 -23 -36 -1 0 0 27 2 60 5 70 -11 104 -61 125 l-32 14
34 1 c25 0 42 -9 67 -34z m-3036 -6 c0 -5 -4 -10 -10 -10 -5 0 -10 5 -10 10 0
6 5 10 10 10 6 0 10 -4 10 -10z m878 -34 c11 -11 8 -15 -17 -26 -31 -13 -81
-7 -81 9 0 5 7 17 16 26 18 18 59 13 82 -9z m-1608 -46 c0 -5 6 -7 14 -4 21 8
96 -70 96 -101 0 -32 -6 -31 -55 6 -49 37 -92 109 -65 109 6 0 10 -4 10 -10z
m580 -35 c0 -12 -29 -3 -34 10 -4 13 -2 14 14 5 11 -6 20 -13 20 -15z m-275
-15 c-3 -5 -11 -10 -16 -10 -6 0 -7 5 -4 10 3 6 11 10 16 10 6 0 7 -4 4 -10z
m-75 -30 c0 -12 -5 -17 -14 -14 -8 3 -12 13 -9 25 6 23 23 15 23 -11z m4963
-54 c12 -12 12 -24 4 -63 -6 -26 -12 -50 -13 -51 -1 -2 -17 -1 -34 3 -28 6
-30 9 -17 23 17 19 28 82 15 82 -5 0 -6 5 -3 10 9 14 31 12 48 -4z m-479 -41
c-4 -8 -8 -15 -10 -15 -2 0 -4 7 -4 15 0 8 4 15 10 15 5 0 7 -7 4 -15z m-320
-10 c12 -32 -17 -61 -49 -49 -20 8 -19 23 2 46 20 22 39 23 47 3z m-3848 -37
c12 -11 34 -23 50 -28 21 -6 12 -7 -36 -5 -36 2 -98 4 -139 4 -41 1 -71 4 -67
8 3 4 29 6 56 4 47 -2 50 -1 50 22 0 13 3 26 6 30 8 8 54 -12 80 -35z m1400 9
c3 -3 -14 -8 -38 -11 -110 -17 -312 -49 -398 -63 -52 -9 -117 -19 -145 -23
l-50 -7 40 -3 40 -3 -40 -8 c-22 -4 -53 -11 -69 -15 -21 -5 -27 -4 -22 5 4 6
17 11 28 11 12 0 19 3 16 6 -5 5 -181 -11 -235 -22 -19 -3 -14 -11 43 -66 35
-35 64 -67 64 -73 0 -6 -3 -5 -8 1 -39 59 -238 194 -262 179 -6 -4 -10 -1 -10
5 0 6 -4 8 -10 5 -5 -3 -10 -1 -10 4 0 16 12 14 67 -10 26 -11 56 -21 66 -22
9 -1 17 -6 17 -12 0 -5 4 -4 8 2 4 7 44 19 87 27 109 20 416 58 429 53 6 -2
56 4 111 15 55 11 118 23 140 27 41 8 133 7 141 -2z m212 6 c-16 -2 -40 -2
-55 0 -16 2 -3 4 27 4 30 0 43 -2 28 -4z m-45 -20 c65 -6 67 -7 67 -33 0 -24
-5 -29 -37 -35 -21 -4 -40 -6 -42 -5 -2 1 -8 -4 -12 -12 -5 -7 -9 -8 -9 -3 0
15 -98 14 -258 -2 -79 -8 -146 -13 -148 -10 -4 4 131 27 171 30 11 0 22 4 25
7 3 4 23 12 45 18 l40 12 -40 -5 c-330 -42 -416 -55 -432 -68 -9 -6 -13 -6
-13 1 0 7 -14 9 -37 6 -29 -4 -34 -3 -23 5 8 6 36 11 62 11 26 0 67 4 90 10
53 12 154 31 188 36 14 1 52 8 85 14 179 31 188 32 278 23z m-1323 -43 c0 -5
-2 -10 -4 -10 -3 0 -8 5 -11 10 -3 6 -1 10 4 10 6 0 11 -4 11 -10z m1180 -44
c0 -2 -11 -6 -25 -8 -13 -3 -22 -1 -19 3 5 9 44 13 44 5z m2330 -6 c0 -11 -33
-30 -52 -30 -22 0 -41 17 -34 29 9 13 86 15 86 1z m-2257 -7 c-7 -2 -19 -2
-25 0 -7 3 -2 5 12 5 14 0 19 -2 13 -5z m-686 -19 c-3 -3 -12 -4 -19 -1 -8 3
-5 6 6 6 11 1 17 -2 13 -5z m76 -1 c-13 -2 -33 -2 -45 0 -13 2 -3 4 22 4 25 0
35 -2 23 -4z m2951 -9 c16 -42 1 -74 -35 -74 -10 0 -12 73 -2 83 11 12 31 7
37 -9z m1569 -1 c-13 -2 -23 -9 -23 -14 0 -6 9 -7 20 -4 13 4 22 1 26 -9 8
-20 -33 -55 -63 -56 -18 0 -23 -6 -23 -25 0 -18 -4 -23 -16 -18 -8 3 -13 12
-9 21 3 8 -2 26 -10 39 -17 26 -13 43 11 43 9 0 22 7 30 15 9 8 30 14 47 14
24 -1 26 -3 10 -6z m-3778 -13 c-3 -5 -19 -10 -35 -10 -16 0 -31 -4 -35 -10
-3 -5 -12 -7 -21 -3 -23 8 -8 16 44 24 26 3 48 7 50 8 2 0 0 -3 -3 -9z m3062
-52 c-3 -8 -6 -5 -6 6 -1 11 2 17 5 13 3 -3 4 -12 1 -19z m-3310 6 c-3 -3 -12
-4 -19 -1 -8 3 -5 6 6 6 11 1 17 -2 13 -5z m4200 -24 c15 0 23 -3 19 -7 -4 -4
-15 -8 -23 -8 -26 0 -26 -23 -1 -28 13 -2 3 -4 -22 -4 -47 -1 -70 10 -70 33 0
13 35 24 58 18 8 -2 25 -4 39 -4z m-2052 -19 c6 -10 -21 -41 -36 -41 -10 0
-12 33 -2 43 9 10 31 9 38 -2z m1165 -30 c0 -31 -13 -47 -29 -36 -12 7 7 65
20 65 5 0 9 -13 9 -29z m-1390 -11 c0 -5 -15 -10 -32 -9 -31 1 -32 1 -8 9 35
11 40 11 40 0z m-3050 -10 c0 -5 -4 -10 -10 -10 -5 0 -10 5 -10 10 0 6 5 10
10 10 6 0 10 -4 10 -10z m420 -15 c13 -14 21 -25 18 -25 -2 0 -15 11 -28 25
-13 14 -21 25 -18 25 2 0 15 -11 28 -25z m148 -126 c130 -111 128 -109 119
-109 -8 0 -119 92 -189 157 -80 73 -43 48 70 -48z m4607 64 c31 -5 35 -8 20
-14 -17 -7 -18 -8 -2 -8 33 -2 16 -18 -36 -34 -72 -23 -85 -22 -93 8 -13 53
12 64 111 48z m-2163 -15 c-17 -8 -26 -8 -34 0 -9 9 -4 12 23 11 32 0 33 -1
11 -11z m1446 -35 c-3 -18 -53 -42 -64 -31 -3 4 -3 16 1 27 8 28 68 31 63 4z
m-3185 -236 c-7 -12 -23 3 -23 22 0 28 14 35 21 9 3 -13 4 -26 2 -31z m137 28
c10 6 -8 -66 -20 -78 -15 -17 -23 54 -9 81 11 20 15 21 17 8 2 -9 7 -14 12
-11z m908 -122 c-10 -2 -26 -2 -35 0 -10 3 -2 5 17 5 19 0 27 -2 18 -5z m152
-7 c0 -3 -4 -8 -10 -11 -5 -3 -10 -1 -10 4 0 6 5 11 10 11 6 0 10 -2 10 -4z
m-1178 -12 c3 -3 3 -14 1 -25 -5 -19 -7 -19 -24 -3 -11 9 -19 21 -19 26 0 9
33 11 42 2z m3856 -21 c-10 -2 -28 -2 -40 0 -13 2 -5 4 17 4 22 1 32 -1 23 -4z
m-250 -49 c19 -6 22 -12 20 -45 l-2 -39 -50 1 c-28 1 -64 4 -79 8 l-28 6 26
34 25 35 0 -30 c0 -39 2 -41 45 -36 48 6 45 45 -5 65 -21 8 18 9 48 1z m-3608
-60 c0 -26 -1 -27 -24 -18 -16 6 -22 35 -10 47 12 12 34 -6 34 -29z m566 8 c7
-5 7 -14 -2 -30 -10 -20 -12 -21 -18 -7 -14 37 -5 54 20 37z m152 -9 c-10 -2
-28 -2 -40 0 -13 2 -5 4 17 4 22 1 32 -1 23 -4z m180 -10 c-16 -2 -40 -2 -55
0 -16 2 -3 4 27 4 30 0 43 -2 28 -4z m-218 -13 c0 -5 -4 -10 -10 -10 -5 0 -10
5 -10 10 0 6 5 10 10 10 6 0 10 -4 10 -10z m2176 -15 c-3 -8 -1 -15 4 -15 6 0
10 7 10 15 0 17 12 19 26 5 6 -6 94 -11 211 -12 111 -2 205 -7 209 -11 5 -4 3
-16 -2 -25 -10 -15 -28 -17 -130 -16 -121 2 -354 8 -354 10 0 9 23 64 27 64 3
0 3 -7 -1 -15z m-2162 -133 c-1 -1 -33 1 -73 4 -66 6 -72 9 -69 28 2 12 10 21
18 22 8 1 36 2 63 2 37 2 47 6 49 20 0 9 4 -3 7 -28 4 -25 6 -46 5 -48z m2779
67 c-8 -8 -19 -8 -40 -1 -28 10 -28 10 12 11 28 1 36 -2 28 -10z m-551 -49
c41 0 51 -3 55 -19 3 -11 12 -22 20 -25 15 -6 57 17 48 26 -13 13 50 17 190
14 83 -2 164 -5 180 -6 29 -2 30 -2 5 -9 -14 -5 -98 -6 -187 -3 -119 4 -163 2
-163 -7 0 -6 10 -11 23 -12 182 -6 268 -16 284 -32 14 -14 15 -17 3 -17 -8 0
-24 -14 -35 -30 -11 -16 -24 -30 -28 -30 -16 0 -97 -86 -97 -103 0 -32 -33
-54 -90 -62 l-55 -8 35 -9 c19 -6 37 -12 39 -14 3 -2 -18 -26 -45 -52 -27 -27
-59 -59 -71 -73 -20 -23 -26 -25 -74 -19 -28 4 -73 5 -99 2 -29 -3 -50 0 -54
7 -4 6 -25 11 -47 11 -24 0 -39 5 -40 13 0 6 -4 3 -9 -8 -6 -17 -8 -15 -13 15
-3 19 -9 58 -12 86 -5 51 -5 52 25 57 16 4 30 13 30 20 0 14 39 55 53 56 4 1
30 1 57 1 28 0 50 5 50 10 0 6 -16 10 -36 10 -31 0 -35 2 -24 14 6 8 21 16 33
18 12 2 20 8 17 13 -3 6 -8 9 -12 7 -5 -1 -8 3 -8 9 0 6 -6 9 -14 6 -24 -9
-38 64 -16 78 6 4 8 11 5 16 -4 5 4 10 17 10 20 1 21 2 3 6 -23 6 -36 23 -28
36 3 4 12 6 20 3 8 -3 37 -6 65 -6z m852 -70 c5 -5 7 -13 3 -16 -8 -9 -188
-13 -255 -7 -52 6 -52 6 -35 26 17 18 26 19 148 13 71 -3 134 -11 139 -16z
m-3339 -10 c3 -5 1 -10 -4 -10 -6 0 -11 5 -11 10 0 6 2 10 4 10 3 0 8 -4 11
-10z m2322 -85 c-1 -50 -5 -58 -40 -92 l-39 -38 26 52 c14 29 26 59 26 67 0
18 18 66 24 66 2 0 4 -25 3 -55z m-2089 38 c-10 -2 -26 -2 -35 0 -10 3 -2 5
17 5 19 0 27 -2 18 -5z m2812 -9 c0 -2 -19 -4 -42 -3 -35 1 -38 2 -18 8 23 7
60 4 60 -5z m220 -4 c69 -6 65 -7 -55 -8 -71 -1 -137 3 -145 8 -17 11 82 11
200 0z m-3052 -7 c-15 -2 -42 -2 -60 0 -18 2 -6 4 27 4 33 0 48 -2 33 -4z
m3030 -59 c61 -5 78 -16 46 -28 -9 -3 -77 -6 -152 -7 l-137 -1 60 -14 c33 -8
86 -16 117 -17 64 -2 77 -10 58 -32 -11 -14 -38 -15 -199 -9 -102 4 -192 11
-199 17 -20 16 25 47 70 47 31 0 38 3 38 20 0 14 -7 20 -22 21 -15 1 -10 4 12
8 37 7 203 4 308 -5z m-3628 -21 c0 -19 -3 -24 -10 -17 -6 6 -8 18 -4 27 9 24
14 21 14 -10z m886 -65 c8 -25 -7 -113 -16 -98 -4 7 -13 9 -19 6 -15 -9 -14
-27 1 -24 16 4 21 -26 14 -76 l-7 -42 -87 13 c-48 7 -94 10 -102 7 -8 -3 -54
-2 -102 2 l-88 7 0 57 0 57 52 2 c63 2 78 11 20 11 -31 0 -42 4 -42 16 0 8 -4
12 -10 9 -5 -3 -10 -2 -10 2 0 30 204 69 353 68 26 0 39 -5 43 -17z m-509 -35
c-3 -10 -5 -4 -5 12 0 17 2 24 5 18 2 -7 2 -21 0 -30z m863 1 l40 -6 0 -53 c0
-33 -5 -55 -12 -58 -13 -4 -159 11 -166 18 -2 2 -1 19 3 37 7 29 9 30 16 13 7
-18 8 -18 8 5 1 14 5 20 9 14 4 -6 17 -7 32 -3 l25 7 -25 2 -25 2 25 8 25 8
-25 2 c-14 1 -31 2 -37 1 -7 -1 -13 3 -13 9 0 8 13 10 40 6 22 -3 58 -9 80
-12z m-1130 -14 c0 -11 -2 -20 -4 -20 -2 0 -6 9 -9 20 -3 11 -1 20 4 20 5 0 9
-9 9 -20z m1366 -20 c15 -6 24 -13 21 -16 -3 -4 1 -13 9 -21 22 -22 11 -29
-40 -25 -45 4 -46 5 -46 38 0 37 10 41 56 24z m1937 1 c91 -8 108 -14 90 -32
-9 -9 -57 -8 -180 1 -92 6 -170 14 -173 17 -2 2 2 8 10 13 18 11 130 12 253 1z
m-3482 -11 c23 0 29 -5 30 -22 1 -22 1 -22 9 2 6 20 8 14 9 -27 1 -47 -1 -53
-21 -57 -48 -11 -126 -13 -139 -5 -11 7 -11 9 -1 10 6 1 17 3 22 4 6 1 24 3
40 4 26 1 30 5 30 30 0 32 -14 41 -53 34 -20 -4 -27 -1 -27 10 0 16 33 27 58
21 8 -2 27 -4 43 -4z m451 -91 l-10 -54 0 75 c-1 58 2 70 10 54 7 -14 7 -39 0
-75z m615 59 c-3 -7 -5 -2 -5 12 0 14 2 19 5 13 2 -7 2 -19 0 -25z m-1337 0
c0 -5 5 -6 11 -2 8 5 10 -1 7 -20 -5 -25 5 -36 15 -16 3 6 4 5 3 -2 -1 -7 -15
-14 -29 -16 -21 -3 -27 1 -27 15 0 10 -3 28 -6 41 -5 18 -3 21 10 16 9 -3 16
-10 16 -16z m450 1 c0 -5 -4 -9 -10 -9 -5 0 -10 -9 -10 -19 0 -11 -3 -22 -8
-25 -4 -2 -6 13 -4 34 3 28 8 37 18 33 8 -3 14 -9 14 -14z m1581 5 c46 -9 91
-18 99 -19 8 -2 23 -4 33 -4 9 -1 17 -4 17 -8 0 -6 -178 -1 -231 6 -10 1 -18
41 -9 41 4 0 45 -7 91 -16z m-1584 -56 c-3 -7 -5 -2 -5 12 0 14 2 19 5 13 2
-7 2 -19 0 -25z m3198 21 c34 -10 37 -13 20 -19 -21 -8 -140 -14 -217 -12 -37
2 -46 5 -42 16 3 8 13 17 22 19 35 9 179 6 217 -4z m-3765 -9 c0 -5 -5 -10
-11 -10 -5 0 -7 5 -4 10 3 6 8 10 11 10 2 0 4 -4 4 -10z m1445 -98 c-11 -71
-17 -40 -8 40 5 51 9 63 11 38 2 -19 1 -54 -3 -78z m968 91 c-7 -2 -19 -2 -25
0 -7 3 -2 5 12 5 14 0 19 -2 13 -5z m-421 -85 l6 -48 -54 0 -54 0 -2 38 c0 20
-1 46 -2 57 -1 16 7 21 44 25 51 6 54 2 62 -72z m317 62 c137 -10 175 -21 130
-38 -13 -6 -33 -20 -44 -32 -41 -45 -73 -54 -190 -51 -60 1 -113 5 -116 9 -4
4 -10 34 -14 67 l-6 60 53 -3 c29 -1 113 -7 187 -12z m-584 -25 c0 -15 -10
-22 -40 -30 -22 -5 -46 -14 -54 -19 -8 -5 -29 -9 -48 -10 -32 -1 -33 0 -33 37
0 47 15 54 107 47 60 -4 68 -7 68 -25z m-2075 5 c0 -5 -2 -10 -4 -10 -3 0 -8
5 -11 10 -3 6 -1 10 4 10 6 0 11 -4 11 -10z m2914 -33 c-5 -8 -3 -8 7 1 14 13
120 17 117 5 -1 -5 1 -18 5 -29 9 -24 40 -36 73 -28 19 5 22 2 17 -15 -3 -11
-9 -18 -14 -15 -5 3 -9 -6 -9 -20 0 -21 -5 -25 -37 -29 l-38 -4 43 -1 c24 -1
41 -6 37 -11 -6 -11 -275 -14 -302 -4 -14 6 -11 9 17 15 20 4 -8 6 -68 5 -56
-1 -102 -1 -102 0 0 1 23 13 50 26 28 13 50 20 50 16 0 -13 28 -11 35 1 4 6 2
17 -4 24 -13 16 6 40 39 51 11 4 18 10 15 15 -2 4 13 8 35 8 28 1 38 -3 34
-11z m176 3 c-8 -5 -19 -10 -25 -10 -5 0 -3 5 5 10 8 5 20 10 25 10 6 0 3 -5
-5 -10z m-1520 -17 c81 -5 102 -15 92 -41 -13 -35 -23 -37 -166 -29 -200 10
-206 12 -206 47 l0 29 78 4 c42 2 88 2 102 -1 14 -2 59 -7 100 -9z m-790 -9
c0 -37 -20 -54 -63 -54 -48 0 -72 14 -82 48 -6 21 -4 22 69 22 62 0 76 -3 76
-16z m2838 9 c-21 -2 -57 -2 -80 0 -24 2 -7 4 37 4 44 0 63 -2 43 -4z m-3098
-7 c0 -7 -50 -13 -55 -7 -2 4 10 8 26 9 16 1 29 1 29 -2z m1623 -27 c-7 -7
-20 -8 -30 -5 -17 7 -17 8 1 22 23 17 48 2 29 -17z m1570 24 c-7 -2 -19 -2
-25 0 -7 3 -2 5 12 5 14 0 19 -2 13 -5z m-2527 -51 c-11 -10 -15 4 -8 28 l7
25 3 -23 c2 -13 1 -26 -2 -30z m-273 21 c-7 -2 -21 -2 -30 0 -10 3 -4 5 12 5
17 0 24 -2 18 -5z m1092 -10 c10 -13 29 -17 76 -18 l64 -1 0 -49 c0 -46 -1
-48 -30 -52 -16 -2 -34 -8 -39 -14 -17 -16 -36 -10 -36 12 0 11 -4 17 -10 14
-5 -3 -10 -1 -10 5 0 7 -7 10 -14 7 -10 -4 -13 -1 -10 8 3 7 12 16 20 19 21 8
17 26 -6 26 -11 0 -20 5 -20 11 0 6 -14 9 -32 7 -24 -2 -33 1 -36 14 -6 28 64
38 83 11z m-1938 -9 c-3 -3 -12 -4 -19 -1 -8 3 -5 6 6 6 11 1 17 -2 13 -5z
m195 0 c37 -4 65 -10 63 -15 -3 -4 -36 -11 -73 -14 -37 -4 -73 -12 -79 -17
-10 -8 -13 -4 -13 15 0 16 -7 27 -17 30 -28 7 45 8 119 1z m1517 -49 c-1 -31
-6 -52 -11 -47 -8 8 0 102 9 102 2 0 3 -25 2 -55z m131 45 c0 -5 -4 -10 -10
-10 -5 0 -10 5 -10 10 0 6 5 10 10 10 6 0 10 -4 10 -10z m347 -88 c-2 -15 -4
-2 -4 28 0 30 2 43 4 27 2 -15 2 -39 0 -55z m93 52 c0 -14 -4 -23 -10 -19 -5
3 -10 0 -10 -8 0 -12 -27 -26 -50 -27 -3 0 -6 18 -8 40 l-2 40 40 0 c36 0 40
-2 40 -26z m228 18 c47 -2 55 -17 17 -34 -13 -6 -22 -14 -20 -18 8 -13 -23
-19 -53 -10 -19 5 -34 4 -41 -3 -14 -14 -21 -6 -27 34 l-6 34 44 -1 c23 0 62
-1 86 -2z m-1673 -48 c-23 -17 -46 -18 -40 -1 3 6 17 13 32 14 26 1 27 0 8
-13z m285 6 c0 -5 -2 -10 -4 -10 -3 0 -8 5 -11 10 -3 6 -1 10 4 10 6 0 11 -4
11 -10z m120 6 c0 -3 -4 -8 -10 -11 -5 -3 -10 -1 -10 4 0 6 5 11 10 11 6 0 10
-2 10 -4z m45 -6 c-3 -5 -13 -10 -21 -10 -8 0 -14 5 -14 10 0 6 9 10 21 10 11
0 17 -4 14 -10z m585 6 c0 -2 -7 -6 -15 -10 -8 -3 -15 -1 -15 4 0 6 7 10 15
10 8 0 15 -2 15 -4z m-40 -30 c0 -3 -4 -8 -10 -11 -5 -3 -10 -1 -10 4 0 6 5
11 10 11 6 0 10 -2 10 -4z m-260 -26 c0 -17 -6 -20 -37 -19 -21 1 -30 3 -20 6
9 2 17 11 17 19 0 8 9 14 20 14 13 0 20 -7 20 -20z m1115 0 c18 -8 17 -9 -7
-9 -16 -1 -28 4 -28 9 0 12 8 12 35 0z"/>
<path d="M1055 2568 c11 -15 24 -28 28 -28 15 0 1 23 -23 39 l-24 16 19 -27z"/>
<path d="M1220 2361 c0 -7 7 -19 15 -27 13 -13 15 -13 15 -1 0 8 -7 20 -15 27
-11 9 -15 10 -15 1z"/>
<path d="M2926 2221 c-4 -5 1 -8 9 -7 21 3 31 16 12 16 -9 0 -18 -4 -21 -9z"/>
<path d="M2960 2159 c0 -5 5 -7 10 -4 6 3 10 8 10 11 0 2 -4 4 -10 4 -5 0 -10
-5 -10 -11z"/>
<path d="M2983 1725 c0 -14 4 -24 9 -23 5 2 9 7 9 11 -1 4 -1 14 -1 22 0 8 -4
15 -9 15 -5 0 -8 -11 -8 -25z"/>
<path d="M3071 1596 c2 -2 50 -6 106 -8 57 -2 98 -1 91 3 -12 7 -205 12 -197
5z"/>
<path d="M1798 2113 c7 -3 16 -2 19 1 4 3 -2 6 -13 5 -11 0 -14 -3 -6 -6z"/>
<path d="M2528 1763 c12 -2 32 -2 45 0 12 2 2 4 -23 4 -25 0 -35 -2 -22 -4z"/>
<path d="M5570 690 c0 -5 9 -10 19 -10 11 0 23 5 26 10 4 6 -5 10 -19 10 -14
0 -26 -4 -26 -10z"/>
<path d="M5841 514 c0 -11 3 -14 6 -6 3 7 2 16 -1 19 -3 4 -6 -2 -5 -13z"/>
<path d="M5630 280 c-8 -5 -10 -10 -5 -10 6 0 17 5 25 10 8 5 11 10 5 10 -5 0
-17 -5 -25 -10z"/>
<path d="M4120 370 c0 -5 7 -7 15 -4 8 4 15 8 15 10 0 2 -7 4 -15 4 -8 0 -15
-4 -15 -10z"/>
<path d="M2640 310 c0 -5 5 -10 10 -10 6 0 10 5 10 10 0 6 -4 10 -10 10 -5 0
-10 -4 -10 -10z"/>
<path d="M4011 84 c0 -11 3 -14 6 -6 3 7 2 16 -1 19 -3 4 -6 -2 -5 -13z"/>
<path d="M4420 90 c-13 -8 -12 -10 3 -10 9 0 17 5 17 10 0 12 -1 12 -20 0z"/>
<path d="M3210 3482 c0 -26 69 -49 98 -33 19 10 20 14 9 31 -17 28 -107 29
-107 2z"/>
<path d="M1860 3405 c0 -9 5 -15 11 -13 6 2 11 8 11 13 0 5 -5 11 -11 13 -6 2
-11 -4 -11 -13z"/>
<path d="M3265 3371 c-11 -5 -23 -7 -26 -5 -4 2 -14 -5 -24 -16 -17 -19 -17
-20 18 -35 47 -20 106 -20 113 0 8 21 -22 65 -44 64 -9 0 -26 -4 -37 -8z"/>
<path d="M1687 3353 c-4 -3 -7 -21 -7 -39 0 -19 -6 -34 -15 -38 -26 -10 -45 5
-45 35 0 16 -3 29 -7 29 -5 0 -17 3 -28 6 -18 5 -20 1 -17 -50 3 -47 7 -55 27
-60 13 -3 36 -3 53 0 16 3 39 1 52 -6 27 -15 126 -18 140 -4 7 7 2 20 -15 40
-14 16 -25 35 -25 42 0 24 -40 52 -73 52 -19 0 -37 -3 -40 -7z"/>
<path d="M3930 3270 c-12 -8 -11 -10 8 -10 12 0 22 5 22 10 0 13 -11 13 -30 0z"/>
<path d="M4455 3240 c-7 -12 2 -30 16 -30 12 0 12 27 0 35 -5 3 -12 1 -16 -5z"/>
<path d="M3382 3171 c-11 -6 -10 -10 4 -15 20 -8 32 0 18 14 -5 5 -15 5 -22 1z"/>
<path d="M1680 2698 c0 -25 26 -58 47 -58 33 0 29 28 -4 36 -16 4 -31 12 -35
18 -4 6 -8 8 -8 4z"/>
<path d="M1608 2643 c6 -2 18 -2 25 0 6 3 1 5 -13 5 -14 0 -19 -2 -12 -5z"/>
</g>
</svg>
